<svg version="1.1" xmlns="http://www.w3.org/2000/svg" viewBox="59.0 103.4 1888.9 822.2">
<rect x="59.0" y="103.4" width="1888.9" height="822.2" fill="#202124" />
<polyline points="137.0 168.0,140.0 168.0,279.0 168.0,299.0 183.0,299.0 187.0,297.0 202.0,297.0 215.0,296.0 223.0,296.0 243.0,294.0 255.0,292.0 279.0,292.0 294.0,289.0 321.0,289.0 336.0,289.0 437.0,289.0 558.0,288.0 599.0,288.0 612.0,286.0 628.0,286.0 640.0,285.0 656.0,285.0 662.0,283.0 684.0,283.0 690.0,280.0 701.0,278.0 711.0,278.0 715.0,277.0 722.0,276.0 726.0,275.0 734.0,273.0 742.0,272.0 745.0,272.0 753.0,271.0 756.0,271.0 764.0,269.0 771.0,269.0 779.0,268.0 789.0,268.0 792.0,267.0 801.0,267.0 807.0,268.0 837.0,268.0 841.0,269.0 844.0,269.0 847.0,270.0 849.0,270.0 853.0,271.0 859.0,269.0 862.0,265.0 866.0,263.0 867.0,260.0 868.0,257.0 868.0,254.0 869.0,249.0 870.0,242.0 872.0,235.0 872.0,228.0 873.0,220.0 873.0,210.0 875.0,199.0 875.0,174.0 877.0,162.0 877.0,154.0 878.0,145.0 878.0,133.0 880.0,128.0 880.0,104.0 880.0" style="fill:none;stroke:#54ffec;stroke-width:2"/>
<polyline points="308.0 217.0,310.0 218.0,313.0 220.0,315.0 221.0,318.0 222.0,325.0 224.0,327.0 225.0,330.0 226.0,332.0 228.0,335.0 229.0,337.0 230.0,340.0 231.0,342.0 234.0,345.0 235.0,347.0 237.0,351.0 239.0,355.0 242.0,357.0 245.0,359.0 247.0,360.0 249.0,362.0 252.0,363.0 255.0,363.0 260.0,362.0 279.0,361.0 283.0,360.0 286.0,358.0 289.0,355.0 293.0,354.0 295.0,352.0 298.0,350.0 300.0,349.0 302.0,347.0 305.0,345.0 307.0,343.0 308.0,338.0 311.0,335.0 312.0,330.0 313.0,327.0 314.0,323.0 314.0,320.0 315.0,316.0 315.0,313.0 316.0,309.0 316.0,300.0 314.0,299.0 309.0,299.0 304.0,298.0 296.0,298.0 293.0,297.0 274.0,297.0 271.0,298.0 239.0,298.0 235.0,299.0 225.0,299.0 223.0" style="fill:none;stroke:#ff78ed;stroke-width:2"/>
<polyline points="358.0 176.0,358.0 173.0,359.0 170.0,361.0 165.0,363.0 162.0,364.0 160.0,365.0 157.0,367.0 155.0,368.0 153.0,370.0 150.0,373.0 149.0,376.0 151.0,378.0 154.0,379.0 156.0,380.0 159.0,382.0 164.0,383.0 167.0,383.0 172.0,384.0 177.0" style="fill:none;stroke:#ff78ed;stroke-width:2"/>
<polyline points="352.0 166.0,366.0 167.0,370.0 167.0,381.0 167.0,383.0 167.0,385.0 167.0" style="fill:none;stroke:#ff78ed;stroke-width:2"/>
<polyline points="394.0 179.0,395.0 176.0,397.0 171.0,399.0 165.0,404.0 156.0,405.0 153.0,409.0 144.0,412.0 138.0,413.0 135.0,412.0 138.0,411.0 144.0,410.0 146.0,409.0 150.0,408.0 157.0,408.0 160.0,407.0 165.0,410.0 163.0,412.0 160.0,416.0 157.0,418.0 155.0,425.0 149.0,427.0 147.0,431.0 145.0,431.0 148.0,430.0 170.0,430.0 173.0,429.0 177.0,429.0 180.0" style="fill:none;stroke:#ff78ed;stroke-width:2"/>
<polyline points="445.0 149.0,451.0 147.0,453.0 150.0,455.0 156.0,453.0 159.0,449.0 159.0,446.0 160.0,448.0 161.0,449.0 163.0,451.0 164.0,453.0 167.0,454.0 169.0,456.0 172.0,456.0 175.0,455.0 184.0,453.0 185.0,449.0 185.0,445.0 184.0" style="fill:none;stroke:#ff78ed;stroke-width:2"/>
<polyline points="466.0 160.0,469.0 156.0,473.0 153.0,475.0 152.0,482.0 149.0,485.0 149.0,488.0 150.0,489.0 153.0,489.0 157.0,487.0 164.0,485.0 167.0,484.0 169.0,479.0 174.0,477.0 177.0,474.0 179.0,473.0 181.0,470.0 183.0,467.0 186.0,466.0 188.0,468.0 190.0,473.0 189.0,477.0 189.0,481.0 187.0,488.0 184.0,490.0 183.0,493.0 182.0" style="fill:none;stroke:#ff78ed;stroke-width:2"/>
<polyline points="504.0 168.0,508.0 166.0,514.0 162.0,522.0 157.0,526.0 155.0,530.0 154.0,533.0 152.0,537.0 150.0,540.0 149.0,542.0 148.0,545.0 149.0,545.0 152.0,544.0 160.0,543.0 163.0,542.0 165.0,540.0 171.0,538.0 173.0,537.0 175.0,536.0 180.0,535.0 182.0,534.0 186.0,533.0 189.0" style="fill:none;stroke:#ff78ed;stroke-width:2"/>
<polyline points="335.0 235.0,337.0 233.0,340.0 232.0,342.0 231.0,345.0 230.0,350.0 227.0,354.0 226.0,357.0 225.0,362.0 225.0,365.0 224.0,370.0 224.0,380.0 223.0,385.0 223.0,390.0 222.0,393.0 221.0,395.0 221.0" style="fill:none;stroke:#ff78ed;stroke-width:2"/>
<polyline points="361.0 259.0,364.0 259.0,402.0 260.0,404.0 261.0,408.0 262.0,411.0 263.0,416.0 264.0,418.0 265.0" style="fill:none;stroke:#ff78ed;stroke-width:2"/>
<polyline points="361.0 282.0,362.0 286.0,365.0 290.0,366.0 292.0,368.0 295.0,374.0 300.0,377.0 302.0,379.0 304.0,382.0 306.0,385.0 307.0,388.0 309.0,390.0 310.0,392.0 312.0,395.0 314.0,396.0 316.0,397.0 317.0" style="fill:none;stroke:#ff78ed;stroke-width:2"/>
<polyline points="345.0 312.0,345.0 315.0,343.0 318.0,343.0 321.0,344.0 331.0,344.0 333.0,345.0 334.0" style="fill:none;stroke:#ff78ed;stroke-width:2"/>
<polyline points="320.0 209.0,324.0 208.0,329.0 206.0,333.0 205.0,335.0 204.0,337.0 203.0,338.0 202.0" style="fill:none;stroke:#ff78ed;stroke-width:2"/>
<polyline points="532.0 872.0,532.0 869.0,531.0 859.0,528.0 851.0,526.0 843.0,523.0 836.0,520.0 827.0,517.0 815.0,514.0 805.0,508.0 781.0,503.0 768.0,502.0 761.0,497.0 732.0,497.0 727.0,499.0 717.0,503.0 717.0,506.0 719.0,510.0 720.0,513.0 720.0,516.0 721.0,521.0 721.0,574.0 719.0,592.0 718.0,601.0 718.0,613.0 716.0,618.0 716.0,635.0 717.0,638.0 718.0,640.0 720.0,641.0 722.0,643.0 727.0,644.0 731.0,645.0 734.0,648.0 745.0,648.0 750.0,646.0 847.0,646.0 860.0,644.0 882.0,644.0 889.0,642.0 899.0,642.0 902.0,643.0 906.0,644.0 901.0" style="fill:none;stroke:#58daff;stroke-width:2"/>
<polyline points="560.0 716.0,558.0 715.0,556.0 711.0,552.0 708.0,547.0 704.0,534.0 691.0,482.0 641.0,457.0 616.0,444.0 607.0,418.0 588.0,395.0 569.0,377.0 558.0,367.0 552.0" style="fill:none;stroke:#58daff;stroke-width:2"/>
<polyline points="549.0 705.0,552.0 704.0,552.0 700.0,550.0 671.0,544.0 632.0,542.0 607.0,537.0 582.0,535.0 568.0" style="fill:none;stroke:#58daff;stroke-width:2"/>
<polyline points="568.0 697.0,569.0 693.0,572.0 680.0,573.0 673.0,579.0 652.0,581.0 643.0,584.0 627.0,593.0 608.0,613.0 570.0,623.0 556.0,633.0 542.0" style="fill:none;stroke:#58daff;stroke-width:2"/>
<polyline points="592.0 683.0,595.0 680.0,603.0 671.0,631.0 641.0,645.0 629.0,657.0 617.0" style="fill:none;stroke:#58daff;stroke-width:2"/>
<polyline points="463.0 295.0,466.0 295.0,471.0 296.0,477.0 297.0,484.0 300.0,491.0 301.0,499.0 304.0,506.0 306.0,518.0 311.0,522.0 313.0,525.0 316.0,529.0 321.0,531.0 324.0,534.0 331.0,536.0 334.0,537.0 337.0,538.0 342.0,541.0 346.0,542.0 349.0,544.0 354.0,545.0 359.0,548.0 363.0,549.0 367.0,550.0 372.0,553.0 377.0,554.0 383.0,555.0 387.0,557.0 394.0,559.0 402.0,560.0 408.0,562.0 415.0,563.0 422.0,563.0 427.0,564.0 431.0,565.0 433.0,566.0 436.0,567.0 438.0,568.0 442.0,569.0 444.0,570.0 448.0,571.0 451.0,572.0 455.0,573.0 457.0,574.0 460.0,573.0 458.0,570.0 455.0,568.0 452.0,565.0 450.0,563.0 448.0,562.0 445.0,560.0 444.0,558.0 441.0,556.0 440.0,558.0 444.0,560.0 446.0,561.0 448.0,563.0 450.0,565.0 451.0,568.0 453.0,572.0 454.0,574.0 453.0,577.0 452.0,579.0 449.0,580.0 445.0,581.0 442.0,583.0 438.0,583.0 434.0,582.0 425.0,581.0 422.0,579.0 424.0,576.0 425.0,572.0 427.0,567.0 429.0,564.0 431.0,562.0 433.0,558.0 437.0" style="fill:none;stroke:#58daff;stroke-width:2"/>
<polyline points="1525.0 123.0,1521.0 128.0,1517.0 136.0,1514.0 141.0,1513.0 145.0,1510.0 149.0,1509.0 151.0,1507.0 154.0,1504.0 159.0,1501.0 165.0,1498.0 172.0,1496.0 174.0,1495.0 176.0,1493.0 183.0,1491.0 187.0,1491.0 191.0,1490.0 198.0,1490.0 204.0,1491.0 223.0,1491.0 229.0,1492.0 231.0,1492.0 235.0,1493.0 241.0,1494.0 243.0,1495.0 247.0,1496.0 249.0,1498.0 255.0,1499.0 259.0,1500.0 261.0,1500.0 264.0,1501.0 266.0,1502.0 271.0,1504.0 278.0,1506.0 281.0,1507.0 285.0,1508.0 287.0,1510.0 290.0,1511.0 292.0,1513.0 298.0,1515.0 301.0,1516.0 303.0,1518.0 306.0,1519.0 308.0,1520.0 311.0,1521.0 313.0,1523.0 315.0,1524.0 317.0,1526.0 322.0,1527.0 324.0,1529.0 327.0,1530.0 330.0,1532.0 331.0,1533.0 333.0,1536.0 338.0,1537.0 340.0,1539.0 343.0,1540.0 345.0,1542.0 346.0,1543.0 348.0,1545.0 350.0,1552.0 359.0,1555.0 363.0,1557.0 365.0,1560.0 367.0,1563.0 371.0,1565.0 373.0,1568.0 375.0,1570.0 377.0,1575.0 381.0,1577.0 383.0,1581.0 386.0,1583.0 388.0,1586.0 390.0,1590.0 393.0,1593.0 395.0,1595.0 396.0,1598.0 399.0,1604.0 401.0,1607.0 403.0,1609.0 405.0,1611.0 406.0,1616.0 408.0,1620.0 409.0,1622.0 410.0,1628.0 412.0,1630.0 413.0,1633.0 414.0,1638.0 416.0,1641.0 417.0,1645.0 418.0,1648.0 419.0,1654.0 420.0,1659.0 421.0,1662.0 421.0,1668.0 422.0,1673.0 422.0,1679.0 423.0,1682.0 423.0,1689.0 424.0,1692.0 424.0,1696.0 425.0,1702.0 426.0,1705.0 426.0,1723.0 425.0,1725.0 424.0,1728.0 423.0,1730.0 422.0,1733.0 422.0,1735.0 421.0,1739.0 420.0,1741.0 419.0,1745.0 418.0,1747.0 417.0,1757.0 413.0,1759.0 412.0,1762.0 411.0,1767.0 410.0,1770.0 410.0,1776.0 409.0,1779.0 409.0,1784.0 408.0,1787.0 407.0,1793.0 406.0,1796.0 405.0,1801.0 404.0,1804.0 403.0,1808.0 403.0,1810.0 402.0,1813.0 402.0,1817.0 401.0,1824.0 400.0,1826.0 399.0,1831.0 398.0,1839.0 397.0,1841.0 396.0,1846.0 395.0,1850.0 394.0,1854.0 394.0,1856.0 393.0,1860.0 393.0,1864.0 392.0,1870.0 390.0,1872.0 389.0,1876.0 388.0,1878.0 387.0,1882.0 386.0,1885.0 384.0,1888.0 383.0,1890.0 382.0,1893.0 381.0,1895.0 379.0,1898.0 375.0,1900.0 372.0,1901.0 369.0,1903.0 365.0,1903.0 362.0" style="fill:none;stroke:#fff338;stroke-width:2"/>
<polyline points="1505.0 206.0,1494.0 204.0,1492.0 203.0,1485.0 203.0,1481.0 202.0,1463.0 197.0,1448.0 194.0,1421.0 190.0,1388.0 186.0,1374.0 185.0,1368.0 184.0,1359.0 182.0,1355.0 182.0,1352.0 181.0,1344.0 180.0,1340.0 179.0,1335.0 177.0,1330.0 176.0" style="fill:none;stroke:#fff338;stroke-width:2"/>
<polyline points="1487.0 253.0,1480.0 254.0,1477.0 255.0,1474.0 257.0,1465.0 261.0,1459.0 264.0,1454.0 267.0,1434.0 277.0,1425.0 280.0,1415.0 285.0,1387.0 291.0,1375.0 293.0,1363.0 297.0,1338.0 301.0,1326.0 305.0,1316.0 308.0,1308.0 310.0,1292.0 317.0,1286.0 320.0,1279.0 323.0,1276.0 324.0" style="fill:none;stroke:#fff338;stroke-width:2"/>
<polyline points="1514.0 319.0,1511.0 320.0,1508.0 322.0,1506.0 323.0,1500.0 330.0,1497.0 333.0,1487.0 346.0,1479.0 357.0,1468.0 376.0,1463.0 385.0,1458.0 391.0,1450.0 405.0,1438.0 423.0,1435.0 430.0,1429.0 439.0,1427.0 443.0,1426.0 446.0,1424.0 451.0,1423.0 455.0" style="fill:none;stroke:#fff338;stroke-width:2"/>
<polyline points="1579.0 396.0,1578.0 417.0,1576.0 425.0,1573.0 436.0,1570.0 448.0,1566.0 460.0,1562.0 475.0,1552.0 509.0,1548.0 525.0,1547.0 533.0,1541.0 552.0,1539.0 560.0,1538.0 563.0,1538.0 567.0,1538.0 569.0" style="fill:none;stroke:#fff338;stroke-width:2"/>
<polyline points="1704.0 444.0,1705.0 448.0,1706.0 451.0,1706.0 454.0,1705.0 546.0,1704.0 545.0" style="fill:none;stroke:#fff338;stroke-width:2"/>
<polyline points="1639.0 158.0,1639.0 163.0,1639.0 182.0,1639.0 185.0,1639.0 187.0" style="fill:none;stroke:#fff338;stroke-width:2"/>
<polyline points="1676.0 170.0,1676.0 173.0,1677.0 179.0,1677.0 190.0,1677.0 192.0,1676.0 194.0,1676.0 196.0" style="fill:none;stroke:#fff338;stroke-width:2"/>
<polyline points="1597.0 196.0,1599.0 203.0,1600.0 208.0,1601.0 210.0,1602.0 213.0,1603.0 218.0,1606.0 221.0,1607.0 225.0,1611.0 231.0,1613.0 237.0,1616.0 240.0,1625.0 250.0,1628.0 253.0,1630.0 256.0,1635.0 259.0,1637.0 262.0,1641.0 265.0,1643.0 267.0,1647.0 270.0,1649.0 272.0,1651.0 273.0,1655.0 276.0,1658.0 277.0,1660.0 278.0,1663.0 279.0,1668.0 281.0,1673.0 282.0,1677.0 282.0,1698.0 280.0,1700.0 279.0,1707.0 276.0,1711.0 272.0,1714.0 270.0,1717.0 266.0,1721.0 261.0,1722.0 258.0,1726.0 251.0,1727.0 247.0,1729.0 241.0,1731.0 233.0,1732.0 231.0,1732.0 228.0" style="fill:none;stroke:#fff338;stroke-width:2"/>
</svg>